<?xml version="1.0" standalone="no"?>
<!DOCTYPE svg PUBLIC "-//W3C//DTD SVG 20010904//EN"
 "http://www.w3.org/TR/2001/REC-SVG-20010904/DTD/svg10.dtd">
<svg version="1.0" xmlns="http://www.w3.org/2000/svg"
 width="1920.000000pt" height="1080.000000pt" viewBox="0 0 1920.000000 1080.000000"
 preserveAspectRatio="xMidYMid meet">

<g transform="translate(0.000000,1080.000000) scale(0.100000,-0.100000)"
fill="#000000" stroke="none">
<path d="M11531 9939 c-32 -17 -69 -29 -90 -29 -21 0 -46 -7 -57 -15 -10 -8
-30 -15 -43 -15 -13 0 -39 -13 -58 -30 -18 -16 -42 -30 -52 -30 -10 0 -32 -7
-47 -15 -16 -8 -39 -15 -51 -15 -12 0 -25 -4 -28 -10 -3 -5 -14 -10 -24 -10
-10 0 -24 -7 -31 -15 -7 -8 -23 -15 -36 -15 -13 0 -47 -16 -74 -36 -29 -21
-63 -36 -78 -36 -15 0 -34 -7 -43 -14 -9 -8 -29 -14 -45 -13 -16 2 -48 -7 -71
-19 -26 -14 -60 -22 -91 -22 -51 0 -72 -14 -97 -63 -9 -17 -18 -21 -44 -19
-18 2 -43 -4 -56 -12 -13 -9 -36 -16 -50 -16 -18 0 -28 -7 -35 -25 -12 -32
-68 -55 -133 -55 -34 0 -57 -6 -70 -17 -18 -17 -19 -17 -33 2 -11 14 -17 16
-26 7 -8 -8 -8 -15 2 -27 7 -8 11 -17 9 -19 -11 -11 -48 -10 -61 2 -12 10 -20
8 -42 -9 -15 -12 -38 -21 -51 -21 -13 0 -36 -13 -51 -29 -19 -20 -37 -29 -60
-29 -18 0 -35 -4 -38 -9 -10 -16 -86 -51 -110 -51 -13 0 -38 -14 -56 -31 -29
-28 -37 -31 -81 -27 -32 3 -55 0 -67 -8 -9 -7 -29 -14 -43 -14 -15 0 -32 -7
-39 -15 -7 -8 -20 -15 -30 -15 -10 0 -23 -7 -30 -15 -7 -8 -27 -15 -44 -15
-18 0 -36 -4 -42 -10 -5 -5 -21 -11 -34 -13 -20 -4 -24 -9 -22 -30 2 -21 -2
-26 -25 -29 -22 -2 -28 -8 -27 -25 1 -28 -27 -39 -55 -21 -16 10 -23 10 -33 0
-7 -7 -37 -12 -69 -12 -38 0 -61 -5 -69 -15 -7 -8 -23 -15 -35 -15 -13 0 -36
-7 -51 -15 -16 -8 -37 -15 -47 -15 -10 0 -22 -11 -27 -25 -11 -29 -22 -31 -40
-10 -18 21 -27 19 -56 -12 -18 -19 -36 -28 -57 -28 -25 0 -32 -5 -37 -25 -5
-22 -11 -25 -59 -27 -67 -2 -81 -8 -81 -32 0 -22 -19 -31 -66 -31 -18 0 -59
-14 -90 -30 -47 -26 -63 -30 -98 -25 -38 6 -43 4 -54 -19 -9 -21 -17 -25 -35
-21 -16 4 -29 -1 -47 -19 -16 -18 -34 -26 -56 -26 -18 0 -36 -4 -39 -10 -3 -5
-19 -10 -34 -10 -16 0 -34 -7 -41 -15 -7 -8 -27 -15 -44 -15 -22 0 -40 -8 -56
-25 -13 -14 -34 -25 -48 -25 -13 0 -35 -9 -49 -20 -14 -11 -36 -20 -49 -20
-27 0 -57 -51 -48 -85 3 -13 1 -26 -5 -29 -16 -10 -13 -62 4 -76 8 -7 15 -25
15 -40 0 -15 -7 -33 -15 -40 -13 -11 -15 -87 -15 -569 0 -413 -3 -560 -12
-569 -9 -9 -9 -18 0 -37 7 -14 12 -41 12 -59 0 -20 8 -40 19 -50 18 -17 22
-17 43 -2 12 9 41 16 65 16 23 0 45 5 48 10 3 6 18 10 33 10 18 0 41 16 78 55
29 30 56 55 60 55 4 0 16 -7 26 -17 17 -15 19 -15 36 0 12 11 36 17 69 17 40
0 57 6 86 29 20 15 51 34 69 41 18 8 49 26 69 42 20 15 45 28 55 28 26 0 40
11 48 36 5 15 12 20 26 17 12 -3 16 -10 13 -21 -5 -13 -1 -14 27 -8 19 3 41
13 50 21 9 8 31 15 48 15 21 0 37 8 50 25 16 20 29 25 64 25 36 0 50 6 73 30
16 17 37 30 47 30 10 0 18 4 18 9 0 17 73 39 96 29 28 -13 106 25 102 50 -2
11 5 18 20 20 13 2 27 14 32 27 7 17 14 22 30 18 11 -3 27 0 35 7 8 7 26 9 43
5 17 -3 48 1 73 9 24 9 61 16 81 16 31 0 42 6 64 36 34 44 67 59 94 42 16 -11
24 -8 47 14 15 14 37 28 48 30 12 2 19 10 17 21 -2 11 7 21 25 28 15 6 31 16
35 22 6 9 12 9 27 0 16 -10 22 -8 42 13 24 25 55 32 61 13 5 -15 108 9 108 24
0 16 50 77 62 77 6 0 20 -7 30 -17 17 -15 20 -15 41 4 12 11 36 28 54 37 18 9
36 24 42 33 7 14 12 15 24 4 13 -10 22 -9 49 5 18 9 42 24 53 33 48 41 98 62
144 60 28 -1 59 4 79 15 18 9 37 14 43 11 5 -4 16 -1 24 5 28 23 90 50 116 50
15 0 29 7 33 15 3 8 13 15 23 15 10 0 27 7 37 15 11 8 32 15 47 15 15 0 31 5
34 10 3 6 18 10 32 10 14 0 41 13 60 30 25 22 44 30 72 30 27 0 44 7 61 24 12
14 35 28 51 31 16 4 27 11 23 16 -3 5 -2 18 1 29 7 23 37 26 58 6 12 -13 16
-12 25 10 10 21 18 24 61 24 31 0 53 5 61 15 7 8 23 15 36 15 12 0 26 5 29 10
3 6 14 10 24 10 10 0 24 7 31 15 8 9 21 13 35 9 17 -4 25 -1 29 14 4 12 26 25
64 37 31 10 69 24 84 31 15 8 30 14 35 13 22 -4 33 3 33 20 0 11 -4 23 -10 26
-17 11 -11 35 9 35 11 0 23 5 27 11 8 14 12 1317 3 1330 -10 17 -78 49 -101
48 -13 0 -47 -13 -77 -30z m-714 -1301 c-3 -7 -5 -2 -5 12 0 14 2 19 5 13 2
-7 2 -19 0 -25z"/>
<path d="M11630 8135 c-7 -8 -25 -15 -41 -15 -21 0 -39 -11 -66 -40 -21 -22
-45 -40 -53 -40 -8 0 -24 -7 -34 -15 -11 -8 -32 -15 -48 -15 -21 0 -28 -5 -28
-19 0 -25 -18 -37 -33 -22 -19 19 -56 12 -73 -14 -14 -21 -24 -25 -64 -25 -28
0 -50 -5 -52 -12 -4 -11 -94 -28 -145 -28 -14 0 -23 -6 -23 -15 0 -8 -13 -21
-30 -30 -16 -9 -30 -23 -30 -33 -1 -19 -32 -45 -67 -56 -13 -4 -23 -13 -23
-20 0 -9 -9 -12 -26 -8 -22 4 -24 8 -19 33 8 35 -11 40 -24 7 -12 -32 -126
-91 -150 -78 -14 7 -24 4 -41 -15 -20 -21 -33 -25 -81 -25 -37 0 -61 -5 -69
-15 -19 -22 -100 -65 -124 -65 -12 0 -31 -7 -42 -15 -10 -8 -31 -15 -45 -15
-14 0 -34 -9 -45 -21 -25 -28 -84 -51 -111 -44 -15 3 -27 -2 -41 -20 -16 -20
-29 -25 -64 -25 -46 0 -78 -21 -78 -51 0 -28 -22 -40 -41 -23 -14 12 -22 13
-39 4 -11 -6 -30 -8 -41 -5 -15 5 -28 -3 -52 -28 -30 -33 -57 -44 -159 -64
-15 -3 -33 -11 -39 -19 -6 -8 -26 -14 -43 -14 -22 0 -40 -8 -57 -26 -38 -40
-86 -59 -119 -47 -25 9 -32 7 -54 -16 -14 -15 -26 -33 -26 -40 0 -9 -18 -11
-66 -9 -61 2 -68 1 -90 -25 -12 -15 -29 -27 -37 -27 -7 0 -22 -7 -33 -15 -10
-8 -29 -15 -42 -15 -30 0 -80 -26 -115 -58 -20 -19 -37 -26 -65 -25 -20 1 -47
-5 -59 -13 -12 -8 -33 -14 -46 -14 -14 0 -30 -7 -37 -15 -7 -8 -19 -15 -27
-15 -8 0 -35 -21 -59 -46 -34 -34 -49 -44 -62 -38 -27 12 -115 5 -133 -11 -8
-8 -21 -15 -27 -15 -15 0 -15 -15 0 -40 18 -28 -3 -48 -34 -33 -49 24 -59 23
-88 -7 -29 -30 -63 -39 -75 -20 -3 6 -13 10 -21 10 -24 0 -126 -52 -161 -82
-27 -22 -39 -26 -68 -21 -33 5 -39 2 -78 -41 -24 -25 -50 -46 -59 -46 -9 0
-20 -5 -24 -11 -3 -6 -17 -8 -29 -5 -18 5 -25 1 -30 -14 -6 -20 -20 -25 -67
-21 -30 2 -46 -15 -29 -32 16 -16 16 -1628 -1 -1645 -8 -8 -8 -15 1 -26 8 -10
9 -16 1 -21 -5 -3 -10 -14 -10 -25 0 -14 5 -17 21 -13 29 8 42 -16 24 -44 -21
-31 -19 -33 17 -33 17 0 59 -16 93 -35 41 -23 69 -32 84 -28 14 4 30 -1 44
-14 38 -34 73 -51 108 -55 30 -3 34 -6 32 -30 -1 -21 3 -28 17 -28 10 0 25 -2
32 -5 8 -3 25 3 37 14 25 22 41 20 41 -5 0 -26 45 -63 69 -57 16 4 36 -11 91
-66 60 -61 73 -70 89 -61 11 5 35 10 53 10 26 0 37 -6 50 -28 9 -15 29 -34 45
-42 15 -8 49 -27 75 -42 26 -15 60 -26 75 -25 23 2 28 -2 28 -22 0 -33 48 -61
103 -61 35 0 42 -3 42 -20 0 -11 7 -20 15 -20 8 0 15 7 15 15 0 27 34 16 63
-20 19 -24 36 -35 54 -35 17 0 40 -12 60 -32 30 -29 35 -30 57 -18 31 16 54 8
58 -22 2 -14 16 -29 37 -40 19 -10 45 -29 58 -43 20 -20 28 -23 43 -15 11 6
20 15 20 21 0 6 10 9 23 7 16 -2 22 -10 22 -29 0 -33 22 -59 50 -59 12 0 44
-12 70 -26 36 -18 61 -25 95 -23 55 3 72 -5 68 -34 -3 -21 1 -22 86 -25 66 -2
94 1 112 13 36 23 490 22 532 -2 27 -16 30 -15 54 3 15 10 31 27 37 36 9 14
15 1182 11 2250 0 35 -27 63 -45 48 -10 -8 -19 -8 -34 -1 -17 10 -24 7 -42
-19 -16 -21 -31 -30 -52 -30 -18 0 -42 -11 -64 -30 -18 -16 -39 -30 -44 -30
-6 0 -24 -11 -41 -25 -16 -14 -36 -25 -44 -25 -8 0 -14 -4 -14 -10 0 -5 -8
-10 -17 -10 -9 0 -24 -7 -34 -16 -9 -8 -27 -16 -40 -16 -13 -1 -32 -8 -42 -17
-13 -10 -36 -14 -76 -13 -50 2 -60 -1 -81 -23 -22 -23 -88 -60 -155 -85 -14
-5 -25 -16 -25 -25 0 -8 -8 -23 -18 -33 -17 -17 -18 -39 -16 -293 1 -175 -2
-279 -8 -286 -18 -22 -53 -14 -84 17 -16 16 -36 30 -45 30 -8 0 -26 11 -39 26
-18 18 -31 23 -48 19 -16 -4 -31 0 -43 11 -10 9 -25 14 -34 11 -22 -9 -45 3
-45 23 0 9 -9 25 -19 34 -15 14 -24 15 -40 7 -29 -16 -39 -14 -43 12 -2 17
-10 23 -38 25 -60 4 -80 12 -80 30 -1 21 -23 52 -38 52 -6 0 -27 14 -45 30
-21 18 -46 30 -63 30 -16 0 -38 7 -48 15 -11 8 -31 15 -45 15 -17 0 -39 14
-64 40 -29 32 -44 40 -71 40 -25 0 -40 7 -55 26 -12 15 -21 32 -21 39 0 14 66
49 113 61 20 5 25 10 18 17 -17 17 -13 37 7 37 9 0 34 14 55 31 36 29 39 30
62 15 23 -15 26 -15 50 10 22 22 28 24 41 13 13 -11 22 -6 56 29 30 32 47 42
72 42 17 0 37 5 44 12 9 9 15 9 24 0 19 -19 48 -15 48 7 0 24 18 37 44 32 34
-5 65 8 68 32 2 18 8 21 34 19 19 -2 36 3 44 13 19 22 75 44 98 38 10 -2 26 2
34 10 26 26 146 77 182 77 47 0 86 16 86 35 0 9 11 20 24 25 13 5 27 14 31 19
3 6 32 11 64 11 57 0 59 1 114 55 51 50 60 55 101 55 25 0 47 4 50 9 10 15 85
51 107 51 12 0 34 11 51 25 36 30 48 31 48 5 0 -25 25 -26 42 -1 8 11 34 27
58 37 25 10 67 30 93 46 26 15 51 28 56 28 4 0 22 7 39 16 27 13 30 19 22 34
-6 10 -10 21 -10 24 0 3 41 5 91 4 87 -1 91 0 122 29 52 49 93 69 111 54 24
-20 69 -4 116 39 47 44 111 80 139 80 21 0 84 30 89 43 2 4 20 7 39 7 20 0 60
8 90 18 46 15 53 20 48 38 -6 26 10 34 49 27 19 -4 34 1 50 16 13 12 30 19 38
16 18 -7 97 32 100 49 0 6 2 33 2 59 1 29 7 51 15 57 12 7 14 97 14 565 l-1
557 -31 19 c-38 23 -36 23 -51 4z m-53 -687 c-3 -8 -6 -5 -6 6 -1 11 2 17 5
13 3 -3 4 -12 1 -19z m-480 -230 c-3 -7 -5 -2 -5 12 0 14 2 19 5 13 2 -7 2
-19 0 -25z m200 -40 c-3 -8 -6 -5 -6 6 -1 11 2 17 5 13 3 -3 4 -12 1 -19z
m-1950 -430 c-3 -8 -6 -5 -6 6 -1 11 2 17 5 13 3 -3 4 -12 1 -19z m-1570 -540
c-3 -7 -5 -2 -5 12 0 14 2 19 5 13 2 -7 2 -19 0 -25z m1178 -68 c3 -5 1 -10
-4 -10 -6 0 -11 5 -11 10 0 6 2 10 4 10 3 0 8 -4 11 -10z m-88 -286 c-3 -3
-12 -4 -19 -1 -8 3 -5 6 6 6 11 1 17 -2 13 -5z m1190 -1786 c-3 -8 -6 -5 -6 6
-1 11 2 17 5 13 3 -3 4 -12 1 -19z"/>
<path d="M10395 2955 c-255 -39 -440 -195 -491 -412 -13 -55 -15 -129 -12
-437 l3 -371 28 -69 c64 -162 197 -272 394 -328 119 -34 289 -31 398 6 44 15
106 43 138 63 74 45 174 146 210 212 l28 51 -85 40 c-47 22 -125 58 -172 80
-47 22 -88 40 -90 40 -2 0 -16 -18 -31 -41 -76 -115 -266 -134 -369 -35 -33
32 -44 51 -49 86 -3 25 -5 176 -3 337 3 329 1 317 87 378 40 28 49 30 134 30
107 0 148 -16 210 -79 l38 -40 157 64 c86 35 159 65 161 67 8 6 -36 87 -78
143 -90 120 -244 206 -388 215 -43 3 -91 7 -108 9 -16 2 -66 -3 -110 -9z"/>
<path d="M4255 2945 c-179 -39 -325 -140 -398 -273 -51 -94 -57 -145 -57 -529
0 -379 4 -420 51 -519 116 -247 469 -374 789 -284 202 57 348 195 395 375 11
45 15 116 15 302 l0 243 -317 -2 -318 -3 0 -165 0 -165 128 -3 127 -3 0 -42
c0 -86 -61 -163 -149 -187 -48 -13 -135 -13 -182 2 -55 16 -116 71 -129 116
-13 48 -13 615 0 662 12 43 61 93 112 114 21 9 66 16 101 16 81 0 157 -36 196
-91 14 -21 29 -38 33 -39 10 0 310 140 322 151 15 13 -47 112 -112 177 -73 73
-186 133 -286 151 -80 15 -247 13 -321 -4z"/>
<path d="M6891 2950 c-180 -38 -338 -135 -413 -255 -14 -22 -36 -67 -49 -100
-23 -58 -23 -70 -27 -414 -2 -237 0 -376 8 -420 36 -206 205 -367 450 -427 99
-25 305 -25 405 0 222 54 392 204 441 389 10 40 14 139 14 412 0 319 -2 368
-18 426 -49 174 -187 303 -397 369 -56 18 -100 23 -220 26 -82 2 -170 -1 -194
-6z m309 -382 c55 -24 88 -53 106 -95 18 -41 20 -615 3 -660 -27 -72 -101
-114 -213 -121 -147 -9 -248 34 -280 120 -15 38 -17 83 -14 343 3 342 4 345
90 398 79 49 214 56 308 15z"/>
<path d="M11691 2950 c-260 -55 -442 -216 -480 -424 -14 -74 -15 -688 -1 -768
32 -200 207 -364 450 -424 99 -25 305 -25 405 0 169 41 328 153 393 274 58
109 62 140 62 532 0 314 -2 363 -18 421 -48 174 -188 303 -397 369 -56 18
-100 23 -220 26 -82 2 -170 -1 -194 -6z m309 -382 c55 -24 88 -53 106 -95 18
-41 20 -615 3 -660 -28 -75 -101 -115 -220 -121 -146 -7 -255 42 -279 126 -6
21 -10 159 -10 327 0 282 1 292 23 335 53 106 237 149 377 88z"/>
<path d="M5240 2140 l0 -800 525 0 525 0 0 200 0 200 -322 2 -323 3 -3 598 -2
597 -200 0 -200 0 0 -800z"/>
<path d="M7780 2926 c0 -8 9 -42 19 -77 11 -35 49 -165 85 -289 35 -124 90
-313 121 -420 31 -107 96 -331 143 -498 l87 -302 189 2 189 3 64 224 c38 137
74 291 91 395 27 164 29 169 40 131 6 -22 20 -103 32 -180 16 -106 38 -192 91
-358 l70 -217 189 0 c105 0 190 3 190 6 0 6 400 1402 431 1503 10 35 19 69 19
77 0 12 -34 14 -207 12 l-207 -3 -97 -389 c-54 -214 -100 -417 -104 -450 -9
-85 -34 -238 -39 -243 -2 -2 -9 29 -16 69 -35 225 -45 273 -75 373 -18 61 -54
183 -81 273 l-47 162 -153 0 -153 0 -56 -177 c-31 -98 -72 -225 -90 -283 -18
-58 -36 -132 -40 -165 -14 -147 -29 -245 -36 -245 -9 0 -15 40 -29 180 -9 94
-52 284 -174 770 l-31 125 -208 3 c-173 2 -207 0 -207 -12z"/>
<path d="M12737 2934 c-4 -4 -7 -364 -7 -801 l0 -793 205 0 205 0 0 250 0 250
35 0 c34 0 40 -6 221 -250 l186 -250 250 0 c191 0 247 3 242 12 -4 7 -99 126
-211 265 -112 139 -203 255 -203 258 0 2 25 16 55 31 114 53 199 173 230 322
18 90 19 236 1 319 -41 189 -177 321 -384 370 -53 13 -144 17 -442 20 -206 3
-379 1 -383 -3z m738 -397 c101 -62 123 -198 48 -288 -43 -51 -75 -59 -238
-59 l-145 0 0 186 0 186 153 -4 c126 -2 157 -6 182 -21z"/>
<path d="M14190 2141 l0 -801 353 0 c318 0 360 2 436 20 173 42 297 129 364
257 55 106 59 144 55 553 -3 326 -6 370 -22 415 -47 123 -131 216 -251 276
-134 66 -174 71 -577 76 l-358 5 0 -801z m692 409 c21 -6 51 -27 71 -49 46
-51 50 -90 45 -416 -3 -229 -5 -253 -23 -283 -27 -46 -69 -69 -145 -81 -71
-12 -182 -14 -217 -5 l-23 6 0 412 c0 227 3 416 7 419 10 11 244 8 285 -3z"/>
</g>
</svg>
