<?xml version="1.0" standalone="no"?>
<!DOCTYPE svg PUBLIC "-//W3C//DTD SVG 20010904//EN"
 "http://www.w3.org/TR/2001/REC-SVG-20010904/DTD/svg10.dtd">
<svg version="1.0" xmlns="http://www.w3.org/2000/svg"
 width="1920.000000pt" height="1080.000000pt" viewBox="0 0 1920.000000 1080.000000"
 preserveAspectRatio="xMidYMid meet">

<g transform="translate(0.000000,1080.000000) scale(0.100000,-0.100000)"
fill="#000000" stroke="none">
<path d="M11060 7547 c-25 -12 -61 -24 -80 -25 -19 -2 -39 -7 -44 -12 -6 -6
-19 -10 -31 -10 -11 0 -28 -9 -38 -20 -9 -11 -28 -20 -42 -20 -14 0 -25 -4
-25 -10 0 -5 -11 -10 -25 -10 -25 0 -55 -13 -87 -39 -10 -7 -23 -11 -31 -8 -8
3 -29 -8 -48 -24 -19 -17 -43 -28 -55 -27 -12 2 -29 -3 -37 -11 -9 -7 -24 -10
-33 -7 -9 4 -23 1 -30 -5 -8 -6 -14 -8 -14 -3 0 5 -4 2 -10 -6 -5 -8 -31 -17
-62 -20 -43 -4 -55 -9 -65 -30 -8 -17 -24 -27 -50 -32 -97 -18 -103 -20 -103
-37 0 -20 -51 -41 -101 -41 -19 0 -40 -5 -47 -12 -8 -8 -15 -8 -27 2 -15 13
-19 8 -16 -21 2 -21 -26 -32 -33 -13 -7 18 -21 18 -41 -2 -9 -10 -27 -18 -41
-20 -13 -1 -32 -12 -42 -24 -15 -19 -24 -21 -52 -15 -30 7 -32 9 -17 20 20 14
23 30 5 19 -9 -6 -9 -3 1 9 7 9 11 24 7 32 -4 11 -2 14 6 9 8 -5 9 -2 5 10 -4
10 -7 22 -7 27 0 6 -5 7 -11 3 -8 -4 -8 0 0 15 8 14 8 21 1 21 -5 0 -10 9 -10
20 0 11 -4 20 -8 20 -5 0 -13 12 -20 28 -9 21 -11 22 -8 5 2 -13 0 -23 -5 -23
-5 0 -9 5 -9 11 0 5 -6 7 -12 3 -9 -5 -9 -2 1 9 12 15 11 17 -3 17 -14 0 -19
-11 -15 -37 1 -5 5 -7 10 -6 4 2 6 -4 3 -12 -4 -8 -1 -15 6 -15 7 0 10 -7 6
-15 -7 -18 10 -20 18 -2 3 6 3 2 0 -10 -3 -13 -2 -28 2 -34 3 -6 7 -33 8 -59
1 -37 -3 -51 -17 -59 -10 -7 -15 -16 -12 -21 3 -5 1 -11 -5 -15 -17 -10 -11
-25 7 -18 11 4 14 3 9 -5 -4 -7 -22 -11 -39 -11 -18 1 -24 3 -14 6 9 2 17 9
17 14 0 6 -8 5 -20 -1 -11 -6 -20 -17 -20 -24 0 -9 -7 -12 -20 -9 -14 4 -20 0
-20 -10 0 -9 -4 -19 -10 -22 -6 -3 -7 1 -4 9 5 12 -1 16 -25 16 -17 0 -31 -4
-31 -10 0 -5 -7 -10 -15 -10 -8 0 -15 5 -15 11 0 5 5 7 10 4 6 -3 10 1 10 9 0
8 -5 18 -12 22 -7 5 -8 3 -3 -6 5 -8 4 -11 -3 -7 -5 4 -8 16 -5 27 4 14 0 20
-12 20 -15 0 -15 2 -4 16 10 13 10 17 -2 25 -8 5 -10 9 -5 9 6 0 5 5 -1 11 -6
6 -9 18 -6 25 3 10 0 12 -10 9 -8 -4 -17 1 -20 9 -4 11 -1 13 11 9 13 -5 14
-3 5 7 -6 7 -9 19 -6 26 3 8 0 14 -6 14 -6 0 -11 11 -11 25 0 14 -4 25 -9 25
-5 0 -8 8 -7 18 2 9 -2 20 -8 24 -10 7 6 10 30 7 4 0 10 4 14 11 4 6 45 14 94
17 76 5 89 3 100 -12 12 -17 14 -17 34 3 22 22 18 39 -5 21 -10 -9 -13 -8 -13
4 0 8 -9 17 -20 20 -11 3 -20 1 -20 -4 0 -5 -5 -9 -11 -9 -5 0 -7 5 -4 10 6
10 1 12 -53 14 -20 1 -31 -3 -28 -10 3 -7 -5 -9 -18 -7 -13 3 -30 -3 -39 -12
-10 -9 -17 -12 -17 -6 0 6 -17 -1 -37 -15 -22 -14 -39 -21 -41 -15 -2 6 -7 9
-12 6 -10 -6 -1 -45 11 -45 5 0 9 -5 9 -11 0 -5 -4 -8 -9 -5 -5 4 -7 -3 -4
-14 3 -11 8 -20 12 -20 4 0 7 -10 8 -22 1 -11 7 -24 14 -28 6 -4 9 -12 5 -18
-5 -8 8 -45 34 -94 5 -9 12 -38 16 -65 6 -47 5 -49 -22 -62 -34 -16 -94 -22
-94 -9 0 4 -5 8 -11 8 -6 0 -8 -8 -5 -18 4 -12 1 -19 -8 -19 -9 0 -13 8 -11
19 5 21 -27 58 -50 58 -8 0 -15 5 -15 11 0 6 -6 9 -13 6 -14 -5 -20 23 -8 33
21 17 37 57 30 75 -6 17 -8 17 -8 3 -1 -10 -7 -18 -14 -18 -7 0 -25 -14 -41
-32 -25 -28 -26 -33 -12 -44 20 -14 20 -21 2 -21 -8 0 -14 5 -13 10 1 5 -4 12
-12 15 -8 3 -11 0 -7 -7 4 -6 0 -11 -9 -11 -9 0 -14 4 -11 9 8 12 -62 -13 -76
-27 -7 -7 -18 -12 -25 -12 -10 0 -11 -5 -3 -17 5 -10 14 -37 20 -60 6 -23 17
-48 24 -56 19 -19 -13 -57 -48 -57 -19 0 -26 -5 -26 -20 0 -11 -7 -20 -15 -20
-8 0 -15 5 -15 10 0 16 -21 12 -43 -7 -19 -18 -20 -18 -3 15 9 17 15 32 12 32
-2 0 0 16 4 35 7 33 6 35 -17 35 -13 0 -22 4 -18 10 3 5 12 7 20 4 9 -4 13 1
12 14 -1 16 -6 18 -27 12 -26 -7 -26 -10 -15 -77 2 -13 -3 -30 -12 -38 -8 -9
-12 -22 -9 -31 3 -8 2 -13 -3 -10 -4 3 -17 -5 -29 -17 -29 -31 -50 -47 -59
-46 -31 5 -49 -24 -21 -33 7 -3 3 -7 -9 -10 -19 -5 -20 -2 -17 26 3 17 1 26
-3 20 -12 -17 -50 -26 -58 -14 -4 6 -3 10 2 9 4 -1 17 -1 28 0 15 1 12 6 -15
19 -45 21 -70 43 -64 54 3 4 0 8 -7 8 -7 0 -10 3 -6 6 3 4 0 13 -8 21 -8 8
-15 26 -16 41 0 24 -1 25 -9 7 -6 -13 -7 3 -4 45 3 41 1 72 -7 87 -14 26 -12
30 16 35 11 1 26 11 33 21 7 9 20 17 29 17 9 0 22 8 29 18 7 9 14 12 14 5 0
-6 8 -10 18 -8 9 2 23 4 30 4 6 1 12 12 12 25 0 20 -4 23 -22 19 -13 -3 -29
-10 -35 -16 -9 -6 -13 -5 -13 4 0 12 -2 12 -9 0 -5 -7 -14 -10 -20 -7 -15 10
-14 -7 2 -23 10 -11 8 -11 -12 -1 -19 10 -25 9 -32 -1 -4 -8 -16 -14 -25 -14
-10 0 -19 -6 -22 -14 -3 -10 0 -12 12 -8 10 4 15 3 11 -3 -3 -6 -15 -10 -25
-10 -27 0 -49 -72 -29 -97 9 -11 10 -14 2 -9 -8 4 -13 1 -13 -8 0 -9 5 -16 12
-16 9 0 9 -3 0 -12 -16 -16 -15 -33 1 -20 10 8 13 6 13 -9 0 -10 -3 -19 -7
-19 -14 0 5 -51 28 -75 14 -14 23 -25 19 -25 -4 0 2 -10 13 -21 12 -13 26 -19
36 -15 9 3 13 2 10 -4 -3 -6 1 -13 9 -16 9 -3 16 -12 16 -19 0 -20 -67 -55
-105 -55 -19 0 -38 -6 -42 -13 -11 -20 -53 -29 -46 -11 3 8 9 12 13 9 5 -3 18
5 30 17 18 20 19 23 5 26 -9 2 -23 -2 -32 -10 -14 -11 -16 -11 -8 2 4 8 -1 6
-12 -5 -11 -11 -18 -26 -15 -34 3 -8 1 -12 -5 -8 -14 9 -74 -3 -68 -14 3 -4 1
-10 -5 -14 -5 -3 -10 -3 -10 2 0 4 -14 8 -30 9 -30 1 -40 -10 -17 -19 7 -3 4
-6 -6 -6 -10 -1 -15 -6 -12 -11 3 -6 -2 -13 -12 -17 -10 -3 -26 -14 -36 -25
-10 -10 -29 -18 -42 -18 -13 0 -27 -4 -30 -10 -3 -5 -17 -10 -31 -10 -17 0
-27 -8 -34 -26 -14 -35 -13 -42 8 -47 16 -4 16 -5 0 -6 -23 -1 -34 -46 -17
-68 15 -17 13 -50 -2 -69 -5 -6 -9 -196 -9 -424 0 -272 -4 -417 -11 -426 -7
-8 -7 -14 1 -19 5 -3 10 -23 10 -44 0 -47 22 -70 46 -50 9 7 29 12 44 11 16
-2 31 1 35 7 3 6 16 11 29 11 14 0 37 16 62 44 36 41 40 43 56 29 13 -11 21
-13 30 -5 7 5 35 13 63 16 27 3 51 10 53 15 2 6 30 25 63 42 32 18 59 35 59
40 0 4 12 9 28 11 19 2 28 9 30 24 2 16 8 20 22 17 10 -3 16 -11 14 -18 -6
-14 42 -9 52 6 3 5 17 9 31 9 15 0 33 10 44 24 16 20 26 24 53 19 27 -4 36 -1
49 17 8 12 22 22 30 24 8 1 22 8 31 15 9 8 36 15 59 16 54 3 74 12 80 36 3 10
12 19 20 19 8 0 17 10 20 22 5 17 9 19 21 9 10 -8 16 -9 21 -1 3 5 28 10 55
10 27 0 52 5 55 10 3 6 21 10 39 10 20 0 40 8 51 20 10 11 14 20 9 20 -5 1 5
7 21 14 21 9 34 10 43 3 9 -7 19 -4 35 11 22 21 25 22 53 22 14 0 14 3 4 16
-11 13 -10 16 8 21 12 3 22 9 22 14 0 14 28 11 33 -3 4 -9 12 -5 25 12 18 21
23 23 46 12 16 -7 28 -8 31 -2 4 6 17 10 31 10 25 0 33 15 12 23 -9 4 -8 6 2
6 8 1 21 10 28 21 15 24 38 26 46 4 6 -15 9 -15 29 5 13 11 28 21 34 21 5 0
18 9 28 20 10 12 25 18 32 16 15 -6 73 13 73 24 0 15 77 48 112 48 20 0 46 5
58 12 12 6 24 9 27 6 3 -3 23 6 44 20 21 13 50 24 64 24 14 0 25 4 25 8 0 9
59 32 83 32 9 0 17 5 17 10 0 6 13 10 28 10 16 0 37 9 47 20 10 11 31 20 48
20 16 0 42 11 59 25 16 14 36 25 43 25 8 0 11 7 8 19 -6 24 22 35 41 16 12
-12 15 -12 19 5 4 16 14 20 45 20 23 0 44 5 47 10 3 6 15 10 27 10 11 0 33 9
48 20 16 11 35 18 43 14 9 -3 16 3 20 16 3 11 9 20 14 19 12 -3 65 11 85 22
10 5 27 9 37 9 29 0 36 18 16 40 -16 18 -16 19 9 26 l25 6 0 501 1 502 -31 18
c-39 22 -45 22 -99 -6z m-1505 -217 c3 -6 -1 -7 -9 -4 -18 7 -21 14 -7 14 6 0
13 -4 16 -10z m-168 -132 c-3 -8 -6 -5 -6 6 -1 11 2 17 5 13 3 -3 4 -12 1 -19z
m-694 -155 c-7 -2 -19 -2 -25 0 -7 3 -2 5 12 5 14 0 19 -2 13 -5z m1704 -25
c-3 -8 -6 -5 -6 6 -1 11 2 17 5 13 3 -3 4 -12 1 -19z m-1249 -73 c17 -4 32
-14 32 -21 0 -8 10 -14 24 -14 13 0 31 -11 42 -25 10 -14 26 -25 36 -25 31 0
30 -20 -1 -26 -17 -4 -31 -13 -31 -21 0 -19 -27 -28 -44 -14 -10 8 -16 9 -21
1 -3 -5 -24 -10 -46 -10 -26 0 -38 -4 -34 -10 4 -6 4 -18 1 -26 -4 -12 -10
-13 -26 -4 -11 6 -20 16 -20 22 0 6 10 3 22 -8 20 -18 21 -18 15 -1 -4 10 -7
24 -7 31 0 7 -12 17 -27 24 -20 8 -22 10 -5 6 23 -6 23 -5 8 30 -8 20 -15 40
-15 44 2 18 21 42 30 37 5 -4 9 -2 9 4 0 5 -6 12 -12 15 -16 6 26 1 70 -9z
m492 5 c0 -5 -10 -10 -22 -9 -22 0 -22 1 -3 9 11 5 21 9 23 9 1 1 2 -3 2 -9z
m-435 -10 c3 -5 1 -10 -4 -10 -6 0 -11 5 -11 10 0 6 2 10 4 10 3 0 8 -4 11
-10z m670 -20 c3 -5 1 -10 -4 -10 -6 0 -11 5 -11 10 0 6 2 10 4 10 3 0 8 -4
11 -10z m-365 -10 c0 -5 -5 -10 -11 -10 -5 0 -7 5 -4 10 3 6 8 10 11 10 2 0 4
-4 4 -10z m50 -6 c0 -2 -7 -4 -15 -4 -8 0 -15 4 -15 10 0 5 7 7 15 4 8 -4 15
-8 15 -10z m-520 -40 c0 -14 -4 -23 -9 -20 -7 5 -8 23 -2 44 4 12 11 -3 11
-24z m350 -10 c0 -2 -7 -4 -15 -4 -8 0 -15 4 -15 10 0 5 7 7 15 4 8 -4 15 -8
15 -10z m528 -9 c-3 -3 -9 2 -12 12 -6 14 -5 15 5 6 7 -7 10 -15 7 -18z m-586
-7 c-7 -7 -12 -8 -12 -2 0 14 12 26 19 19 2 -3 -1 -11 -7 -17z m413 -48 c3 -5
1 -10 -4 -10 -6 0 -11 5 -11 10 0 6 2 10 4 10 3 0 8 -4 11 -10z m-1214 -41 c8
-17 8 -20 -2 -17 -7 2 -13 12 -15 21 -3 23 3 21 17 -4z m549 -15 c0 -2 -7 -4
-15 -4 -8 0 -15 4 -15 10 0 5 7 7 15 4 8 -4 15 -8 15 -10z m-225 -44 c3 -5 1
-10 -4 -10 -6 0 -11 5 -11 10 0 6 2 10 4 10 3 0 8 -4 11 -10z m-265 -20 c0 -5
-5 -10 -11 -10 -5 0 -7 5 -4 10 3 6 8 10 11 10 2 0 4 -4 4 -10z m2007 4 c-3
-3 -12 -4 -19 -1 -8 3 -5 6 6 6 11 1 17 -2 13 -5z m-1782 -14 c3 -6 -1 -7 -9
-4 -18 7 -21 14 -7 14 6 0 13 -4 16 -10z m1462 4 c-3 -3 -12 -4 -19 -1 -8 3
-5 6 6 6 11 1 17 -2 13 -5z m-1494 -29 c-7 -21 -13 -19 -13 6 0 11 4 18 10 14
5 -3 7 -12 3 -20z m-118 -25 c3 -5 -1 -10 -9 -10 -9 0 -16 5 -16 10 0 6 4 10
9 10 6 0 13 -4 16 -10z m1142 -16 c-3 -3 -12 -4 -19 -1 -8 3 -5 6 6 6 11 1 17
-2 13 -5z m710 -16 c-3 -8 -6 -5 -6 6 -1 11 2 17 5 13 3 -3 4 -12 1 -19z
m-630 -50 c-3 -8 -6 -5 -6 6 -1 11 2 17 5 13 3 -3 4 -12 1 -19z m70 -4 c-3 -3
-12 -4 -19 -1 -8 3 -5 6 6 6 11 1 17 -2 13 -5z m-1567 -34 c-8 -5 -18 -6 -24
-3 -5 4 -1 10 10 13 24 9 34 2 14 -10z m2060 -14 c0 -2 -7 -7 -16 -10 -8 -3
-12 -2 -9 4 6 10 25 14 25 6z m-1223 -22 c-3 -3 -12 -4 -19 -1 -8 3 -5 6 6 6
11 1 17 -2 13 -5z m570 -80 c-3 -3 -12 -4 -19 -1 -8 3 -5 6 6 6 11 1 17 -2 13
-5z m-613 -80 c3 -8 2 -12 -4 -9 -6 3 -10 10 -10 16 0 14 7 11 14 -7z m-667
-180 c-3 -3 -12 -4 -19 -1 -8 3 -5 6 6 6 11 1 17 -2 13 -5z m480 -40 c-3 -3
-12 -4 -19 -1 -8 3 -5 6 6 6 11 1 17 -2 13 -5z m643 -64 c0 -5 -5 -10 -11 -10
-5 0 -7 5 -4 10 3 6 8 10 11 10 2 0 4 -4 4 -10z m-845 -30 c3 -5 1 -10 -4 -10
-6 0 -11 5 -11 10 0 6 2 10 4 10 3 0 8 -4 11 -10z m-470 -50 c3 -5 1 -10 -4
-10 -6 0 -11 5 -11 10 0 6 2 10 4 10 3 0 8 -4 11 -10z m1146 -73 c-10 -9 -11
-8 -5 6 3 10 9 15 12 12 3 -3 0 -11 -7 -18z m-534 -49 c-3 -8 -6 -5 -6 6 -1
11 2 17 5 13 3 -3 4 -12 1 -19z m-194 -238 c-3 -11 -7 -20 -9 -20 -2 0 -4 9
-4 20 0 11 4 20 9 20 5 0 7 -9 4 -20z m-16 -62 c-3 -8 -6 -5 -6 6 -1 11 2 17
5 13 3 -3 4 -12 1 -19z"/>
<path d="M9058 7203 c-16 -2 -28 -11 -28 -18 0 -8 -5 -17 -12 -21 -7 -4 -8 -3
-4 4 10 17 -55 3 -74 -16 -8 -8 -9 -12 -2 -8 6 4 12 2 12 -3 0 -6 -6 -11 -13
-11 -7 0 -13 -9 -13 -20 0 -15 7 -20 26 -20 19 0 22 -2 10 -9 -8 -6 -18 -7
-22 -5 -4 3 -8 0 -8 -5 0 -6 7 -11 15 -11 8 0 15 -4 15 -10 0 -5 -4 -10 -10
-10 -5 0 -7 -7 -3 -15 3 -9 8 -13 11 -11 6 7 31 -25 32 -39 0 -5 -5 -3 -10 5
-5 8 -10 10 -10 4 0 -22 29 -38 44 -25 17 14 9 51 -11 51 -10 0 -11 4 -3 19
14 27 13 30 -9 24 -15 -4 -18 0 -14 21 4 20 1 26 -13 27 -16 0 -16 2 4 11 12
6 22 15 22 20 0 5 -4 7 -9 4 -5 -3 -11 0 -14 7 -4 10 5 14 31 14 44 0 72 5 91
18 10 5 16 4 19 -3 2 -7 15 -12 29 -12 18 0 24 -4 20 -15 -4 -8 -2 -17 3 -20
6 -4 10 -17 10 -31 0 -28 13 -31 38 -6 24 24 17 55 -11 47 -19 -5 -20 -5 -4 5
23 15 22 30 -3 30 -12 0 -17 5 -14 14 7 18 -46 32 -56 16 -5 -9 -9 -9 -14 -1
-4 6 -10 10 -14 10 -4 -1 -19 -4 -34 -6z"/>
<path d="M8720 7044 c0 -14 4 -23 9 -19 5 3 22 -10 36 -30 15 -19 31 -32 36
-29 5 3 10 -2 10 -10 3 -29 4 -34 12 -42 4 -4 7 -17 7 -28 0 -12 4 -16 8 -11
4 6 16 10 26 10 11 0 21 6 24 14 3 10 0 12 -13 7 -13 -5 -15 -3 -8 6 6 9 4 24
-7 45 -13 25 -20 29 -29 20 -10 -9 -12 -9 -9 3 2 8 7 18 12 22 6 4 -2 12 -17
19 -14 6 -24 16 -20 22 3 6 -9 8 -31 5 -27 -3 -35 -1 -32 9 3 7 1 13 -4 13 -6
0 -10 -12 -10 -26z m44 -20 c3 -8 2 -12 -4 -9 -6 3 -10 10 -10 16 0 14 7 11
14 -7z m36 -34 c0 -5 -4 -10 -10 -10 -5 0 -10 5 -10 10 0 6 5 10 10 10 6 0 10
-4 10 -10z"/>
<path d="M8530 6950 c0 -5 7 -7 15 -4 8 4 15 8 15 10 0 2 -7 4 -15 4 -8 0 -15
-4 -15 -10z"/>
<path d="M8280 6932 c-8 -5 -22 -8 -30 -7 -8 0 -24 -8 -34 -17 -11 -10 -28
-18 -39 -18 -25 0 -50 -27 -43 -46 3 -8 2 -12 -3 -9 -5 3 -11 0 -14 -7 -2 -7
-3 -2 -1 12 3 20 0 19 -13 -10 -9 -19 -18 -38 -19 -42 -1 -5 -3 -10 -4 -13 -7
-14 -5 -72 3 -82 6 -9 5 -13 -3 -13 -10 0 -10 -3 0 -15 7 -8 16 -12 21 -9 5 3
9 1 9 -5 0 -5 -8 -11 -17 -13 -16 -3 -15 -6 5 -26 12 -12 20 -22 17 -22 -3 0
-1 -9 5 -20 6 -11 16 -18 21 -14 6 3 9 -2 7 -12 -2 -13 3 -19 15 -17 11 0 16
-4 13 -12 -6 -16 47 -40 69 -31 19 7 20 36 1 36 -8 0 -17 7 -20 16 -3 8 -10
13 -15 9 -5 -3 -12 4 -16 15 -3 11 -13 20 -20 20 -8 0 -17 11 -21 25 -5 21 -9
23 -21 14 -11 -9 -17 -9 -26 0 -9 10 -8 11 4 6 23 -9 32 32 14 67 -8 16 -9 25
-3 22 8 -5 9 5 5 31 -5 30 -1 45 15 69 12 17 28 35 35 39 7 5 21 17 31 27 11
12 27 18 39 16 12 -3 31 4 42 13 31 27 26 41 -9 23z m-170 -162 c0 -5 -5 -10
-11 -10 -5 0 -7 5 -4 10 3 6 8 10 11 10 2 0 4 -4 4 -10z m-13 -62 c-3 -8 -6
-5 -6 6 -1 11 2 17 5 13 3 -3 4 -12 1 -19z m88 -158 c-3 -5 -10 -10 -16 -10
-5 0 -9 5 -9 10 0 6 7 10 16 10 8 0 12 -4 9 -10z"/>
<path d="M8313 6913 c-3 -10 -7 -20 -9 -23 -1 -3 16 -6 38 -7 35 -1 39 1 36
20 -4 29 -55 37 -65 10z"/>
<path d="M8220 6880 c0 -5 5 -10 11 -10 5 0 7 5 4 10 -3 6 -8 10 -11 10 -2 0
-4 -4 -4 -10z"/>
<path d="M11125 6190 c-4 -6 -14 -8 -23 -6 -10 4 -29 -6 -47 -22 -43 -39 -81
-62 -105 -62 -11 0 -20 -3 -20 -7 0 -5 -4 -14 -9 -21 -7 -12 -12 -12 -30 0
-20 12 -24 10 -41 -9 -13 -16 -29 -23 -54 -23 -19 0 -38 -4 -41 -10 -3 -5 -21
-10 -39 -10 -17 0 -37 -5 -44 -12 -8 -8 -15 -8 -27 2 -13 10 -15 9 -15 -9 0
-14 -6 -21 -19 -21 -13 0 -21 -8 -23 -22 -2 -14 -18 -31 -41 -43 -20 -12 -34
-24 -31 -28 3 -3 -3 -3 -15 0 -16 4 -19 11 -15 29 8 29 -12 32 -21 3 -4 -11
-18 -25 -31 -31 -13 -6 -24 -15 -24 -20 0 -5 -4 -6 -10 -3 -5 3 -10 2 -10 -4
0 -10 -18 -10 -36 2 -6 3 -19 -2 -29 -13 -13 -15 -31 -20 -65 -20 -32 0 -50
-5 -53 -14 -7 -18 -64 -46 -94 -46 -12 0 -23 -4 -23 -10 0 -5 -13 -10 -30 -10
-16 0 -30 -4 -30 -8 0 -13 -79 -54 -91 -47 -6 4 -21 -2 -33 -14 -12 -12 -31
-21 -42 -20 -40 4 -52 -2 -63 -31 -9 -28 -31 -42 -31 -21 0 5 -18 8 -40 7 -30
-2 -47 -9 -64 -29 -14 -16 -34 -27 -49 -27 -14 0 -29 -4 -32 -10 -3 -5 -14
-10 -24 -10 -10 0 -31 -6 -46 -14 -15 -8 -33 -13 -39 -10 -6 2 -21 -11 -33
-28 -13 -18 -23 -26 -23 -19 0 11 -4 10 -19 -3 -16 -15 -23 -15 -41 -6 -20 10
-26 9 -46 -14 -13 -14 -24 -29 -24 -34 0 -5 -17 -6 -40 -2 -42 8 -80 -9 -80
-35 0 -8 -7 -11 -19 -8 -10 3 -22 0 -25 -6 -4 -6 -15 -11 -26 -11 -22 0 -100
-40 -100 -52 0 -4 -18 -8 -39 -8 -22 0 -43 -4 -46 -10 -3 -5 -15 -10 -26 -10
-21 0 -99 -45 -99 -58 0 -4 -9 -13 -21 -20 -15 -10 -24 -10 -34 -2 -10 8 -19
8 -35 0 -11 -6 -24 -9 -29 -6 -5 3 -14 -1 -21 -9 -7 -8 -19 -15 -26 -15 -8 0
-14 -4 -14 -10 0 -5 5 -10 10 -10 13 0 13 -27 -1 -36 -6 -3 -16 -1 -22 5 -19
19 -56 12 -73 -14 -16 -24 -18 -25 -41 -10 -23 16 -28 15 -77 -9 -29 -14 -61
-35 -71 -45 -12 -14 -25 -18 -45 -15 -21 5 -33 0 -54 -20 -14 -15 -26 -31 -26
-36 0 -6 -9 -10 -19 -10 -11 0 -23 -5 -26 -10 -5 -8 -11 -8 -20 0 -9 8 -15 8
-20 0 -3 -5 -3 -10 2 -10 26 -1 -28 -20 -56 -20 -27 0 -31 -3 -22 -14 15 -17
15 -1272 1 -1281 -17 -10 -11 -27 7 -21 21 9 34 -13 22 -36 -8 -15 -6 -18 10
-18 11 0 44 -13 73 -29 35 -20 59 -27 68 -21 9 6 19 1 32 -15 11 -14 36 -27
61 -32 32 -7 42 -13 42 -28 0 -26 54 -34 67 -11 5 9 17 16 26 15 10 0 12 -3 5
-6 -10 -3 -9 -11 2 -34 11 -21 23 -29 43 -29 28 -1 62 -20 62 -36 0 -5 14 -22
32 -37 21 -19 34 -25 42 -17 20 20 55 10 87 -25 18 -19 35 -32 39 -30 4 3 13
-2 20 -10 7 -8 21 -15 31 -15 11 0 19 -4 19 -10 0 -5 12 -8 28 -7 18 1 26 -2
24 -12 -5 -26 29 -51 70 -51 33 0 38 -3 39 -22 l0 -23 15 22 c15 21 44 22 44
1 0 -17 28 -38 52 -38 14 0 34 -11 46 -25 21 -24 24 -25 44 -10 28 19 39 19
31 0 -6 -17 23 -55 42 -55 7 0 20 -9 30 -20 19 -21 45 -27 45 -10 0 6 11 10
25 10 27 0 32 -9 13 -28 -8 -8 -4 -14 18 -23 16 -6 48 -20 72 -30 23 -10 60
-19 82 -19 33 0 40 -3 40 -20 0 -12 7 -21 18 -21 68 -6 110 -3 127 8 30 18
384 16 406 -3 13 -12 19 -10 47 13 l32 26 0 847 c0 666 -3 850 -12 858 -20 15
-77 7 -92 -13 -8 -11 -20 -16 -29 -12 -9 3 -26 -4 -42 -19 -14 -13 -33 -24
-40 -24 -8 0 -20 -9 -27 -20 -7 -11 -19 -20 -26 -20 -14 0 -50 -19 -70 -38 -7
-7 -18 -10 -23 -6 -6 3 -17 0 -25 -7 -8 -7 -35 -11 -60 -10 -38 1 -49 -3 -66
-24 -11 -14 -24 -25 -30 -25 -21 0 -98 -44 -98 -56 0 -6 -7 -17 -15 -24 -12
-10 -14 -47 -13 -224 l3 -211 -26 -3 c-15 -2 -32 5 -44 18 -10 11 -23 20 -30
20 -7 0 -20 9 -30 20 -12 13 -25 18 -38 14 -13 -4 -24 1 -34 16 -11 16 -18 19
-26 11 -16 -16 -27 -13 -27 8 0 30 -27 47 -52 32 -21 -13 -33 -8 -33 12 0 7
-17 13 -38 15 -29 3 -40 9 -47 27 -5 13 -19 29 -32 36 -13 6 -33 21 -45 32
-12 11 -29 17 -37 14 -8 -3 -20 1 -26 9 -7 8 -22 14 -34 14 -12 0 -35 14 -52
31 -21 22 -36 29 -55 27 -28 -4 -43 7 -53 40 -6 17 -2 23 18 28 14 3 26 10 26
15 0 5 14 9 30 9 17 0 30 5 30 10 0 6 -4 10 -10 10 -5 0 -10 5 -10 10 0 6 7
10 16 10 9 0 27 12 40 27 21 25 24 26 47 10 22 -14 25 -14 38 4 8 12 20 17 32
13 12 -4 26 3 42 20 13 14 32 26 43 26 10 0 24 6 30 12 10 10 17 10 32 0 27
-16 29 -16 40 14 7 18 17 25 33 24 39 -4 47 0 47 20 0 11 7 20 15 20 8 0 15
-4 15 -10 0 -5 9 -1 20 10 11 11 26 20 34 20 7 0 19 7 26 15 10 12 15 13 21 3
6 -9 12 -9 26 4 10 8 28 19 41 22 12 4 22 12 22 17 0 6 5 7 10 4 6 -4 16 -2
23 3 7 6 32 12 57 14 37 3 45 7 51 28 4 14 7 21 8 16 1 -4 12 -1 25 8 16 10
35 14 55 10 25 -5 36 0 78 40 39 38 54 46 85 46 21 0 38 5 38 10 0 6 9 10 20
10 11 0 20 5 20 10 0 6 13 10 28 10 16 0 37 9 47 20 22 24 35 26 35 5 0 -17
16 -20 25 -5 3 5 23 17 43 27 20 9 63 32 95 50 31 18 61 33 65 35 4 2 6 5 5 8
-1 3 -4 12 -8 21 -5 13 0 15 27 11 18 -3 36 -10 40 -16 5 -8 11 -7 20 2 6 6
21 12 31 12 11 0 35 14 54 30 33 29 83 41 83 20 0 -15 37 6 83 47 21 18 42 31
47 28 6 -4 10 -1 10 4 0 6 11 11 24 11 14 0 31 6 38 13 15 14 82 39 95 35 4
-1 25 4 46 11 26 9 37 18 35 29 -2 13 4 16 28 15 19 -2 37 4 44 12 7 8 20 15
30 15 9 0 31 7 48 16 29 14 32 20 32 59 0 24 4 47 10 50 6 4 10 161 10 426
l-1 420 -25 9 c-31 12 -31 12 -39 0z m-445 -310 c0 -5 -2 -10 -4 -10 -3 0 -8
5 -11 10 -3 6 -1 10 4 10 6 0 11 -4 11 -10z m-63 -6 c-3 -3 -12 -4 -19 -1 -8
3 -5 6 6 6 11 1 17 -2 13 -5z m116 -364 c3 -11 1 -18 -4 -14 -5 3 -9 12 -9 20
0 20 7 17 13 -6z m-416 -62 c-3 -8 -6 -5 -6 6 -1 11 2 17 5 13 3 -3 4 -12 1
-19z m0 -110 c-3 -8 -6 -5 -6 6 -1 11 2 17 5 13 3 -3 4 -12 1 -19z m500 -14
c-3 -3 -12 -4 -19 -1 -8 3 -5 6 6 6 11 1 17 -2 13 -5z m-469 -49 c-3 -3 -9 2
-12 12 -6 14 -5 15 5 6 7 -7 10 -15 7 -18z m-208 -29 c0 -2 -7 -7 -16 -10 -8
-3 -12 -2 -9 4 6 10 25 14 25 6z m-723 -98 c-3 -8 -6 -5 -6 6 -1 11 2 17 5 13
3 -3 4 -12 1 -19z m363 8 c0 -3 -4 -8 -10 -11 -5 -3 -10 -1 -10 4 0 6 5 11 10
11 6 0 10 -2 10 -4z m-413 -48 c-3 -8 -6 -5 -6 6 -1 11 2 17 5 13 3 -3 4 -12
1 -19z m1190 -4 c-3 -3 -12 -4 -19 -1 -8 3 -5 6 6 6 11 1 17 -2 13 -5z m-817
-8 c0 -2 -7 -7 -16 -10 -8 -3 -12 -2 -9 4 6 10 25 14 25 6z m-693 -48 c-3 -8
-6 -5 -6 6 -1 11 2 17 5 13 3 -3 4 -12 1 -19z m-540 -174 c-3 -3 -12 -4 -19
-1 -8 3 -5 6 6 6 11 1 17 -2 13 -5z m543 -44 c0 -5 -5 -10 -11 -10 -5 0 -7 5
-4 10 3 6 8 10 11 10 2 0 4 -4 4 -10z m-813 -82 c-3 -7 -5 -2 -5 12 0 14 2 19
5 13 2 -7 2 -19 0 -25z m888 -48 c3 -5 1 -10 -4 -10 -6 0 -11 5 -11 10 0 6 2
10 4 10 3 0 8 -4 11 -10z m-478 -6 c-3 -3 -12 -4 -19 -1 -8 3 -5 6 6 6 11 1
17 -2 13 -5z m204 -97 c-10 -9 -11 -8 -5 6 3 10 9 15 12 12 3 -3 0 -11 -7 -18z
m-286 -355 c-3 -3 -11 0 -18 7 -9 10 -8 11 6 5 10 -3 15 -9 12 -12z m145 -212
c0 -5 -2 -10 -4 -10 -3 0 -8 5 -11 10 -3 6 -1 10 4 10 6 0 11 -4 11 -10z
m-175 -220 c-3 -5 -12 -10 -18 -10 -7 0 -6 4 3 10 19 12 23 12 15 0z m1222
-112 c-3 -8 -6 -5 -6 6 -1 11 2 17 5 13 3 -3 4 -12 1 -19z m304 -11 c-10 -9
-11 -8 -5 6 3 10 9 15 12 12 3 -3 0 -11 -7 -18z m-201 -31 c0 -2 -7 -7 -16
-10 -8 -3 -12 -2 -9 4 6 10 25 14 25 6z m-1510 -26 c0 -5 -2 -10 -4 -10 -3 0
-8 5 -11 10 -3 6 -1 10 4 10 6 0 11 -4 11 -10z m100 -40 c0 -5 -2 -10 -4 -10
-3 0 -8 5 -11 10 -3 6 -1 10 4 10 6 0 11 -4 11 -10z m1330 -270 c0 -5 -5 -10
-11 -10 -5 0 -7 5 -4 10 3 6 8 10 11 10 2 0 4 -4 4 -10z m288 -10 c-7 -10 -14
-18 -15 -16 -6 6 9 36 18 36 5 0 4 -9 -3 -20z m-747 -43 c-10 -9 -11 -8 -5 6
3 10 9 15 12 12 3 -3 0 -11 -7 -18z m289 9 c0 -2 -7 -7 -16 -10 -8 -3 -12 -2
-9 4 6 10 25 14 25 6z m-82 -221 c-3 -3 -9 2 -12 12 -6 14 -5 15 5 6 7 -7 10
-15 7 -18z m159 -117 c-3 -8 -6 -5 -6 6 -1 11 2 17 5 13 3 -3 4 -12 1 -19z"/>
<path d="M9575 2790 c3 -5 8 -10 11 -10 2 0 4 5 4 10 0 6 -5 10 -11 10 -5 0
-7 -4 -4 -10z"/>
</g>
</svg>
